<?xml version="1.0" encoding="iso-8859-1"?>
<!-- Uploaded to: SVG Repo, www.svgrepo.com, Generator: SVG Repo Mixer Tools -->
<svg version="1.1" id="Layer_1" xmlns="http://www.w3.org/2000/svg" xmlns:xlink="http://www.w3.org/1999/xlink" 
	 viewBox="0 0 512 512" xml:space="preserve">
<path style="fill:#C7E7EB;" d="M420.221,170.033l-10.322,17.564c-3.676-27.581-14.619-52.892-30.836-73.947l19.925,5.06
	l28.04-33.769l-48.08-48.08l-33.869,28.123l5.176,19.93c-21.133-16.193-46.524-27.09-74.182-30.676l17.701-10.531L289.722,0h-67.996
	l-4.063,43.836l17.809,10.466C207.75,57.98,182.318,69,161.193,85.337l5.146-20.268l-33.768-28.04L84.49,85.109l28.123,33.869
	l20.275-5.266c-16.314,21.203-27.288,46.715-30.876,74.514l-10.677-17.944l-43.705,4.052v67.996l43.836,4.063L102.04,228.4
	c9.926,76.113,75.184,135.085,153.959,135.085c78.699,0,143.903-58.854,153.929-134.859l10.423,17.519l43.705-4.052v-67.996
	L420.221,170.033z M256,287.537c-43.739,0-79.323-35.584-79.323-79.323s35.584-79.323,79.323-79.323s79.323,35.584,79.323,79.323
	S299.739,287.537,256,287.537z"/>
<path style="fill:#A7CBCF;" d="M256,39.437c93.061,0,168.773,75.711,168.773,168.773S349.061,376.982,256,376.982l-22.503-11.251
	L256,354.479c80.651,0,146.27-65.608,146.27-146.27c0-80.651-65.619-146.27-146.27-146.27l-22.503-11.252L256,39.437z"/>
<path style="fill:#B7D9DD;" d="M256,354.479v22.503c-93.061,0-168.773-75.711-168.773-168.773S162.939,39.437,256,39.437V61.94
	c-80.651,0-146.27,65.619-146.27,146.27C109.73,288.871,175.349,354.479,256,354.479z"/>
<path style="fill:#88ACB5;" d="M256,309.473l-22.503-16.877L256,275.718c37.22,0,67.509-30.278,67.509-67.509
	c0-37.22-30.289-67.509-67.509-67.509l-22.503-16.877L256,106.946c55.841,0,101.264,45.434,101.264,101.264
	C357.264,264.05,311.841,309.473,256,309.473z"/>
<path style="fill:#A7CBCF;" d="M256,275.718v33.755c-55.841,0-101.264-45.422-101.264-101.264
	c0-55.83,45.422-101.264,101.264-101.264V140.7c-37.22,0-67.509,30.289-67.509,67.509C188.491,245.44,218.78,275.718,256,275.718z"
	/>
<path style="fill:#FF4719;" d="M253.963,376.982L296.179,512h32.956v-84.386c0-5.288,1.98-11.488,5.074-16.877L253.963,376.982z"/>
<g>
	<path style="fill:#FF754F;" d="M177.791,410.736l60.589-33.755l60.589,33.755c-1.699,5.389-2.79,11.589-2.79,16.877V512H182.865
		v-84.386C182.865,422.326,180.885,416.126,177.791,410.736z"/>
	<path style="fill:#FF754F;" d="M511.972,286.97L342.715,400.711c-3.218,2.374-6.177,5.963-8.506,10.025h-35.24V253.215
		L511.972,286.97z"/>
</g>
<path style="fill:#FF9269;" d="M396.644,286.97l-93.005,113.742c-1.767,2.374-3.387,5.963-4.669,10.025H177.791
	c-2.329-4.062-5.288-7.651-8.506-10.025L0.028,286.97l198.308-33.755L396.644,286.97z"/>
<polygon style="fill:#FF4719;" points="511.972,241.964 511.972,286.97 396.644,286.97 374.141,264.467 396.644,241.964 "/>
<rect x="0.028" y="241.964" style="fill:#FF754F;" width="396.616" height="45.006"/>
</svg>